<svg id="ecosolution" width="169" height="25" fill="none" xmlns="http://www.w3.org/2000/svg"><path d="M9.735 24.429c-5.148 0-8.778-3.63-8.778-8.58s3.63-8.58 8.778-8.58c5.148 0 8.712 3.63 8.712 8.58v1.287H4.719c.495 2.607 2.475 4.026 5.016 4.026 1.914 0 3.3-.561 4.191-1.782h3.861c-1.254 3.069-4.224 5.049-8.052 5.049ZM4.818 14.133h9.867c-.627-2.376-2.574-3.597-4.95-3.597-2.442 0-4.29 1.254-4.917 3.597Zm22.997 10.296c-5.148 0-8.778-3.63-8.778-8.58s3.63-8.58 8.778-8.58c4.39 0 7.623 2.64 8.448 6.435h-3.597c-.759-1.881-2.508-3.135-4.85-3.135-3.103 0-5.182 2.211-5.182 5.28 0 3.069 2.08 5.28 5.181 5.28 2.343 0 4.092-1.254 4.851-3.135h3.597c-.825 3.795-4.059 6.435-8.448 6.435Zm17.823 0c-5.148 0-8.778-3.63-8.778-8.58s3.63-8.58 8.778-8.58c5.148 0 8.778 3.63 8.778 8.58s-3.63 8.58-8.778 8.58Zm0-3.3c3.102 0 5.148-2.211 5.148-5.28 0-3.069-2.046-5.28-5.148-5.28s-5.181 2.211-5.181 5.28c0 3.069 2.079 5.28 5.181 5.28Zm16.23 3.3c-4.124 0-6.731-2.211-6.83-5.214h3.597c.066 1.221 1.155 2.046 3.234 2.046 2.178 0 3.2-.924 3.2-2.046 0-1.386-1.55-1.551-3.464-1.815-2.64-.33-6.237-.825-6.237-4.686 0-3.267 2.54-5.445 6.468-5.445 3.927 0 6.369 2.244 6.435 5.082H64.74c-.1-1.122-1.122-1.914-2.871-1.914-1.881 0-2.904.891-2.904 2.013 0 1.386 1.617 1.551 3.465 1.815 2.508.33 6.237.792 6.237 4.686 0 3.3-2.673 5.478-6.798 5.478Zm16.225 0c-5.148 0-8.778-3.63-8.778-8.58s3.63-8.58 8.778-8.58c5.148 0 8.778 3.63 8.778 8.58s-3.63 8.58-8.778 8.58Zm0-3.3c3.102 0 5.148-2.211 5.148-5.28 0-3.069-2.046-5.28-5.148-5.28s-5.181 2.211-5.181 5.28c0 3.069 2.079 5.28 5.18 5.28ZM88.68 24V.57h3.564V24H88.68Zm14.132.429c-4.819 0-8.052-2.772-8.052-8.25V7.698h3.563v8.481c0 3.3 1.783 4.95 4.489 4.95s4.488-1.65 4.488-4.95V7.698h3.564v8.481c0 5.445-3.234 8.25-8.052 8.25Zm16.563 0c-3.927 0-6.6-2.178-6.6-6.666V1.923h3.564v5.775h8.679v3.234h-8.679v6.831c0 2.376 1.221 3.366 3.036 3.366s3.069-.957 3.069-3.366v-.396h3.531v.396c0 4.488-2.673 6.666-6.6 6.666ZM129.59 5.388c-1.386 0-2.409-1.056-2.409-2.442 0-1.386 1.023-2.442 2.409-2.442s2.409 1.056 2.409 2.442c0 1.386-1.023 2.442-2.409 2.442ZM127.775 24V7.698h3.564V24h-3.564Zm14.165.429c-5.148 0-8.778-3.63-8.778-8.58s3.63-8.58 8.778-8.58c5.148 0 8.778 3.63 8.778 8.58s-3.63 8.58-8.778 8.58Zm0-3.3c3.102 0 5.148-2.211 5.148-5.28 0-3.069-2.046-5.28-5.148-5.28s-5.181 2.211-5.181 5.28c0 3.069 2.079 5.28 5.181 5.28ZM151.967 24v-8.481c0-5.445 3.234-8.25 8.052-8.25s8.052 2.772 8.052 8.25V24h-3.564v-8.481c0-3.3-1.782-4.95-4.488-4.95-2.706 0-4.488 1.65-4.488 4.95V24h-3.564Z" fill="#173D33"/></svg>